<svg xmlns="http://www.w3.org/2000/svg" width="14" height="14" viewBox="0 0 14 14">
  <path fill="#FDC53B" d="M163.579527,746.376209 L165.242966,749.903698 C165.336931,750.102954 165.518555,750.241053 165.728646,750.272987 L169.44768,750.838735 C169.690702,750.875674 169.892599,751.053855 169.968446,751.298329 C170.044293,751.542802 169.980928,751.811146 169.805006,751.990485 L167.113447,754.736188 C166.961229,754.891465 166.892215,755.114929 166.927689,755.333667 L167.563008,759.210866 C167.604467,759.464136 167.50497,759.720082 167.306346,759.8711 C167.107722,760.022117 166.844415,760.04202 166.627122,759.92244 L163.300245,758.091521 C163.112233,757.98828 162.887767,757.98828 162.699755,758.091521 L159.372878,759.92244 C159.155585,760.04202 158.892278,760.022117 158.693654,759.8711 C158.49503,759.720082 158.395533,759.464136 158.436992,759.210866 L159.072311,755.333667 C159.108216,755.114637 159.038734,754.891151 158.886553,754.736188 L156.194994,751.990485 C156.019072,751.811146 155.955707,751.542802 156.031554,751.298329 C156.107401,751.053855 156.309298,750.875674 156.55232,750.838735 L160.271354,750.272987 C160.481445,750.241053 160.663069,750.102954 160.757034,749.903698 L162.420473,746.376209 C162.659121,745.874597 163.342814,745.874597 163.579527,746.376209 Z" transform="translate(-156 -746)"/>
</svg>
