<svg xmlns="http://www.w3.org/2000/svg" xmlns:xlink="http://www.w3.org/1999/xlink" width="290" height="156" viewBox="0 0 290 156">
  <defs>
    <rect id="oses-graphic-a" width="290" height="156" x="0" y="0"/>
  </defs>
  <g fill="none" fill-rule="evenodd">
    <mask id="oses-graphic-b" fill="#fff">
      <use xlink:href="#oses-graphic-a"/>
    </mask>
    <use fill="#FFF9DA" xlink:href="#oses-graphic-a"/>
    <path fill="#34203A" fill-rule="nonzero" d="M91.8042172,84.4255653 L91.9529119,84.4255653 L93.3944351,84.4255653 L94.414653,84.4255653 L109.883131,84.4255653 L117.111392,84.4255653 L117.441825,84.4255653 L119.048564,84.4255653 L118.152262,85.3218696 L117.764001,85.7101305 L117.111392,86.362739 L115.471609,87.9983912 L111.717044,91.757087 L109.606391,93.8718696 L108.082261,95.3918696 L107.710521,95.7636088 L105.426392,98.047739 L103.138131,95.7636088 L102.766391,95.3918696 L99.4000873,92.0214348 L99.0242179,91.6496956 L94.1874784,86.808826 L92.7418261,85.3631738 L92.4857388,85.1112174 L91.9529119,84.574261 L91.8042172,84.4255653 Z M104.290521,67.7468696 L114.509216,67.7468696 C115.748349,67.7468696 116.764435,68.7629564 116.764435,70.0062174 C116.764435,71.2453479 115.748349,72.2614347 114.509216,72.2614347 L107.850957,72.2614347 L100.734218,72.2614347 C100.139434,70.8075218 99.6561746,69.2999131 99.2968261,67.7468696 L104.290521,67.7468696 Z M140.799436,56.5451304 C141.183566,55.9338262 141.989001,55.7479565 142.600305,56.132087 C143.046392,56.4129566 143.265304,56.9251305 143.195087,57.4166522 C143.174434,57.5983913 143.116609,57.7760001 143.009216,57.9370869 C142.629218,58.5525218 141.819651,58.7383913 141.212478,58.354261 C140.873782,58.1353479 140.671391,57.7883912 140.617695,57.4166522 C140.580522,57.1233913 140.630087,56.8136087 140.799436,56.5451304 Z M86.1413903,79.2996957 C86.3066082,79.5103479 86.4759575,79.7086087 86.6453045,79.9151304 L62.0981314,79.9151304 L55.6505216,79.9151304 C54.4072604,79.9151304 53.3953052,80.927087 53.3953052,82.1703478 C53.3953052,82.9551304 53.8042164,83.6490436 54.4155209,84.0538261 C54.7748694,84.289261 55.1961746,84.4255653 55.6505216,84.4255653 L61.7470433,84.4255653 L71.015738,84.4255653 L75.8690008,84.4255653 L76.8892164,84.4255653 L83.9729119,84.4255653 L85.4185642,84.4255653 L86.434653,85.4416521 L88.0868254,87.093826 L88.4585657,87.4655652 L89.1566082,88.1636087 L89.5200881,88.5270869 L92.6426963,91.6496956 L93.0144343,92.0214348 L95.2655216,94.2683912 L94.1420425,95.3918696 L93.7744358,95.7636088 L90.6600881,98.8779566 L89.825738,99.7123043 L84.6337836,104.90013 C83.7911731,105.742739 83.7663918,107.097522 84.5429119,107.981435 C84.575956,108.018609 84.6007396,108.059913 84.6337836,108.088826 C85.5135649,108.968609 86.9468254,108.968609 87.826609,108.088826 L90.5816082,105.333826 L92.304,103.615565 L96.2031306,99.7123043 L98.4542179,97.4612175 L100.705305,99.7123043 L103.741173,102.744044 C104.199651,103.206652 104.815087,103.417304 105.426392,103.392522 C106.033565,103.417304 106.65313,103.206652 107.111608,102.744044 L110.143347,99.7123043 L112.394434,97.4612175 L114.645522,99.7123043 L123.026175,108.088826 C123.901827,108.968609 125.339216,108.968609 126.214869,108.088826 C127.094652,107.213174 127.094652,105.775783 126.214869,104.90013 L117.111392,95.7925217 L115.587262,94.2683912 L117.111392,92.7442609 L120.006825,89.8488262 L125.430088,84.4255653 L126.524652,84.4255653 L129.585304,84.4255653 L129.581175,86.9162175 L129.581175,91.3936087 L129.581175,109.266 L129.581175,111.63687 C132.650087,111.63687 135.574435,110.901652 138.226173,109.575783 C138.234436,109.571652 138.242696,109.567522 138.255088,109.559261 L138.255088,109.257739 C138.255088,108.559696 138.259217,107.014913 138.263349,105.019913 C138.275738,99.8775218 138.292261,91.7405652 138.292261,87.4201305 C138.292261,80.4149131 143.678349,74.3968695 151.59226,72.5505651 C151.596392,69.081 151.604652,65.661 151.608784,62.9473043 L151.612913,62.9473043 L155.722695,62.9473043 C155.722695,61.0059999 153.897044,59.4281738 151.612913,59.3414349 C151.550956,59.3414349 151.48487,59.333174 151.422913,59.333174 C151.40639,59.333174 151.394001,59.3373044 151.381609,59.3373044 C151.245304,58.6723043 151.042913,58.0320869 150.790957,57.4166522 C149.147043,53.3646957 145.20661,50.5105653 140.597043,50.5105653 C135.995738,50.5105653 132.055305,53.3688262 130.411391,57.4207827 C130.225521,57.8709999 130.080957,58.3377392 129.952913,58.8168696 L129.952913,57.4207827 L129.961173,30.9116522 C115.434436,30.9116522 103.208349,40.4157825 99.6189992,53.3151304 L109.424652,53.3151304 C110.663782,53.3151304 111.679869,54.3312174 111.679869,55.5744784 C111.679869,56.8136087 110.663782,57.8296957 109.424652,57.8296957 L98.7392179,57.8296957 C98.6359567,58.697087 98.5822604,59.5768695 98.5616082,60.4690435 L116.954434,60.4690435 C118.197696,60.4690435 119.209653,61.4851305 119.209653,62.7242608 C119.209653,63.9633913 118.197696,64.9794784 116.954434,64.9794784 L102.109653,64.9794784 L98.8011746,64.9794784 C98.6359567,63.7279565 98.5450873,62.4516522 98.5450873,61.158826 C98.5450873,60.9316521 98.5574791,60.7044784 98.5616082,60.4773044 L98.5533478,60.4690435 L96.4716097,57.8296957 L92.9153045,53.3151304 L87.6944351,46.6981739 C84.575956,49.1557827 82.4322612,52.4394784 81.271609,56.1196957 C78.9833485,63.3892609 80.5446515,72.2077391 86.1413903,79.2996957 Z" mask="url(#oses-graphic-b)"/>
    <path fill="#FDC53B" fill-rule="nonzero" d="M95.9387828,39.3393913 C97.4753045,38.9883044 98.4335657,37.455913 98.086609,35.9235218 C97.7313918,34.3869999 96.1989992,33.4246087 94.6624776,33.7798261 C93.1300873,34.1309131 92.1718261,35.6591738 92.5229119,37.1956957 C92.874,38.7322173 94.4022612,39.6904783 95.9387828,39.3393913" mask="url(#oses-graphic-b)"/>
    <polygon fill="#FDC53B" fill-rule="nonzero" points="91.954 84.575 92.487 85.112 92.739 85.364 94.188 86.809 99.025 91.646 99.401 92.022 102.767 95.392 103.139 95.764 105.427 98.048 107.707 95.764 108.083 95.392 109.603 93.868 111.718 91.757 115.472 87.999 117.112 86.363 117.765 85.711 118.153 85.322 119.049 84.426 117.443 84.426 117.112 84.426 109.884 84.426 94.415 84.426 93.395 84.426 91.954 84.426 91.805 84.426 91.805 84.426" mask="url(#oses-graphic-b)"/>
    <path fill="#FDC53B" fill-rule="nonzero" d="M98.5446746 61.1575869C98.5446746 62.450413 98.635544 63.7267173 98.800762 64.9823696L102.109238 64.9823696 116.954022 64.9823696C118.197283 64.9823696 119.209238 63.9662826 119.209238 62.7230216 119.209238 61.4838913 118.197283 60.4678043 116.954022 60.4678043L98.5611955 60.4678043 98.5529351 60.4678043 98.5611955 60.4760652C98.5570642 60.7032392 98.5446746 60.9304131 98.5446746 61.1575869M111.681934 55.572826C111.681934 54.3336957 110.665848 53.3176087 109.422587 53.3176087L99.6169358 53.3176087C99.2080224 54.7797825 98.9106306 56.2873913 98.7371522 57.8280436L109.422587 57.8280436C110.665848 57.8280436 111.681934 56.816087 111.681934 55.572826M107.85013 72.2618478L114.508391 72.2618478C115.747521 72.2618478 116.76361 71.2457608 116.76361 70.0066305 116.76361 68.7633696 115.747521 67.7472825 114.508391 67.7472825L104.293827 67.7472825 99.3001298 67.7472825C99.6594784 69.3003262 100.138609 70.8079347 100.73339 72.2618478L107.85013 72.2618478zM138.291849 87.4184782C138.291849 91.7430436 138.275325 99.8758695 138.262936 105.022391 138.258804 107.013261 138.254673 108.558044 138.254673 109.260217L138.254673 109.561739C146.085978 105.637826 151.571196 96.5756522 151.575327 86.0843478L151.575327 85.0765217C151.579456 81.6358695 151.583587 76.9065218 151.595979 72.5489131L151.591848 72.5489131C143.677936 74.3993478 138.291849 80.4173912 138.291849 87.4184782M143.011282 57.9387392C143.114543 57.7735217 143.172369 57.5959131 143.197152 57.4183043 143.267369 56.9226522 143.048457 56.4146087 142.59824 56.1337391 141.991064 55.7454784 141.185631 55.9313478 140.801499 56.5467825 140.632152 56.815261 140.578456 57.1250434 140.61976 57.4183043 140.673457 57.7900435 140.871716 58.137 141.210413 58.3517826 141.821717 58.7359131 142.627152 58.5500434 143.011282 57.9387392" mask="url(#oses-graphic-b)"/>
    <path fill="#FDC53B" fill-rule="nonzero" d="M41.043239,73.7302173 C39.5067174,74.0813043 37.9784564,73.1230435 37.6273695,71.5865216 C37.2762825,70.05 38.2345435,68.521739 39.7710651,68.1706521 C41.3034566,67.8154347 42.8358478,68.7778261 43.1869347,70.3143478 C43.5380216,71.8467392 42.5797609,73.3791304 41.043239,73.7302173 M140.561935,132.233696 C139.066718,128.392391 136.687588,125.079783 133.721935,122.481739 C136.216718,118.640435 137.802804,114.216739 138.228239,109.578261 C135.572369,110.904131 132.648021,111.639348 129.579109,111.639348 C129.579109,113.716956 126.749761,115.567391 122.346716,116.769348 C119.091934,117.657391 114.978021,118.186087 110.50063,118.190217 C110.30237,118.190217 110.104108,118.186087 109.905849,118.181956 C109.104543,118.173696 108.315631,118.148913 107.539108,118.111739 C100.975848,117.760652 95.5278037,116.261304 92.9751955,114.233261 C91.9797612,113.436087 91.422153,112.560435 91.422153,111.643478 L93.1817179,111.643478 L107.08063,111.639348 L129.579109,111.639348 L129.579109,109.268478 L129.583238,91.3919564 L129.583238,86.9145651 L129.587369,84.423913 L126.526718,84.423913 L125.428022,84.423913 L120.008891,89.8471739 L117.113457,92.746739 L115.585196,94.2708696 L117.113457,95.7950001 L126.216934,104.898478 C127.092587,105.778261 127.092587,107.211522 126.216934,108.091304 C125.341282,108.971087 123.90389,108.971087 123.024109,108.091304 L114.647587,99.7106522 L112.3965,97.4636956 L110.145413,99.7106522 L107.113674,102.742391 C106.651064,103.205 106.035631,103.415652 105.424326,103.39087 C104.817153,103.415652 104.201717,103.205 103.73911,102.742391 L100.707369,99.7106522 L98.4562836,97.4636956 L96.2051963,99.7106522 L92.3060657,103.613913 L90.5836739,105.332174 L87.8286746,108.091304 C86.948891,108.971087 85.5114992,108.971087 84.6317179,108.091304 C84.5986739,108.058261 84.5780216,108.016956 84.5449776,107.979783 C83.7643261,107.1 83.7891097,105.741087 84.6317179,104.898478 L89.8236746,99.7106522 L90.6580224,98.8763043 L93.7723702,95.7619565 L94.1441082,95.3902173 L95.263456,94.2708696 L93.0165,92.0197827 L92.644762,91.6480435 L89.5221515,88.5254349 L89.1586739,88.1619566 L88.4606314,87.4639131 L88.084762,87.092174 L86.4367164,85.44 L85.4206298,84.423913 L83.9749776,84.423913 L76.887153,84.423913 L75.8669351,84.423913 L71.0136746,84.423913 L61.7449776,84.423913 L55.6525873,84.423913 C55.194109,84.423913 54.7728037,84.2876087 54.4175866,84.0563043 C53.802153,83.6473913 53.3932396,82.9534783 53.3932396,82.1686957 C53.3932396,80.9295651 54.4093261,79.9134784 55.6525873,79.9134784 L62.0960657,79.9134784 L86.6473702,79.9134784 C86.4780209,79.7110869 86.3045425,79.5086956 86.1393269,79.3021739 C80.5467172,72.206087 78.9812828,63.3876088 81.2736746,56.1180436 C76.9036739,53.966087 71.7984575,53.2473913 66.6849784,54.4163043 C61.1915008,55.6719566 56.6604134,58.8854349 53.6451955,63.1480435 C48.614326,59.2282609 41.9271522,57.5182609 35.2275869,59.0506521 C33.2491087,59.505 31.398674,60.2154348 29.6928044,61.1323913 C24.6412827,54.6806522 16.1532392,51.3556521 7.63628254,53.3010869 C6.62845642,53.5323913 5.66193478,53.8339131 4.72432604,54.1891305 C7.06215209,54.2841304 9.35041298,54.6971738 11.5312827,55.3828261 C16.7851957,57.043261 21.4319349,60.3228262 24.7528043,64.7713043 C26.8799782,67.6254348 28.4701957,70.9545651 29.3169348,74.6513043 C30.1141087,78.153913 30.1760652,81.6523913 29.6019348,84.9856521 C30.1430216,85.2458696 30.659326,85.543261 31.1549782,85.8778261 C32.5841087,86.8443478 33.8108478,88.108261 34.715413,89.6199999 C34.7443261,89.6654349 34.773239,89.7067391 34.8021522,89.7521738 C35.4010653,90.7765217 35.855413,91.9041304 36.1362825,93.1226087 C36.5038913,94.741739 36.528674,96.3608696 36.2519349,97.8973913 C37.2391087,97.8436957 38.2180217,97.8478261 39.1886738,97.9097826 C42.6499783,98.1245652 45.9749782,99.0497826 48.9901957,100.578044 C50.8984565,101.544565 52.6786739,102.754783 54.2854127,104.175652 C54.6447612,104.489565 54.9917179,104.81587 55.3345433,105.154565 C58.6223694,108.405217 61.0593269,112.589348 62.1662828,117.426087 C62.3645425,118.281087 62.5132396,119.131956 62.6165008,119.982826 C62.6412821,120.181087 62.6536739,120.371087 62.6743261,120.569348 C66.5362836,121.25913 70.0099776,123.406956 72.3601948,126.546087 C73.3267164,127.843044 74.1032388,129.309348 74.6360657,130.907826 C76.6186739,130.581522 78.5888903,130.408044 80.5425881,130.37913 C82.0584575,130.358478 83.5619351,130.428696 85.0571522,130.581522 C87.1430216,130.792174 89.1917179,131.168043 91.190847,131.70087 C91.9962821,131.911522 92.7975881,132.146956 93.5865,132.411304 C93.8136746,132.489783 94.040847,132.576522 94.2638903,132.655 C94.7388918,132.824348 95.2180224,133.001956 95.6888903,133.191957 C97.3617172,133.861087 98.9891082,134.637609 100.554543,135.521522 C101.108022,135.158043 101.682153,134.823478 102.293457,134.534348 C102.652804,134.365 103.016284,134.216304 103.396282,134.071739 C103.673022,133.972609 103.949761,133.881739 104.234761,133.795 C104.540413,133.7 104.841934,133.605 105.155847,133.534783 C107.774543,132.931739 110.384979,133.12587 112.751717,133.931304 C112.9665,134.001522 113.181283,134.067609 113.387805,134.150217 C114.015631,134.398044 114.606283,134.695435 115.188675,135.021739 C115.713239,135.323261 116.225413,135.649565 116.708673,136.013043 C118.806934,134.83587 121.099326,133.935435 123.561065,133.369565 C129.954978,131.907391 136.3365,132.960652 141.673022,135.868478 C147.947151,139.288478 152.783891,145.277609 154.502151,152.79087 C154.799543,154.063044 154.96889,155.335217 155.063891,156.59913 L155.782588,156.59913 C155.774325,154.620652 155.629762,152.629783 155.167152,150.622391 C153.25889,142.274783 147.699327,135.715652 140.561935,132.233696" mask="url(#oses-graphic-b)"/>
    <path fill="#34203A" fill-rule="nonzero" d="M141.685935,135.798663 C136.348142,132.890824 129.965098,131.843178 123.569659,133.303284 C121.111463,133.864229 118.814395,134.767515 116.715633,135.938899 C116.232258,135.575935 115.719961,135.254217 115.19527,134.953121 C114.612741,134.623154 114.021948,134.326183 113.393971,134.078707 C113.191531,133.996215 112.972567,133.934347 112.757733,133.860104 C110.390428,133.055808 107.779372,132.866077 105.160051,133.464143 C104.846064,133.538386 104.544471,133.633251 104.242876,133.723992 C103.953678,133.810609 103.676872,133.905475 103.400067,134.004465 C103.024108,134.144701 102.656411,134.293186 102.296977,134.462295 C101.685526,134.751016 101.11126,135.085108 100.557649,135.452197 C98.9918415,134.565409 97.3640622,133.789986 95.6908363,133.121802 C95.2198539,132.936195 94.7447413,132.758837 94.2654964,132.589729 C94.0423999,132.507237 93.8151711,132.420621 93.5879446,132.346378 C92.7988422,132.082404 92.0014797,131.847302 91.1917201,131.632823 C89.1921119,131.100751 87.1429292,130.729537 85.0565623,130.519183 C83.5651185,130.366573 82.0571499,130.296455 80.540919,130.317078 C78.5908898,130.341825 76.6160711,130.519183 74.63712,130.845026 C74.104166,129.244683 73.3233283,127.784577 72.3565761,126.489455 C70.0057984,123.350639 66.5354059,121.20585 62.6683971,120.521167 C62.6477399,120.323187 62.6353452,120.129331 62.6105557,119.93135 C62.5072698,119.085809 62.3585396,118.232018 62.1602326,117.382351 C61.0530103,112.548327 58.6196039,108.370114 55.3309935,105.124058 C54.9880864,104.789966 54.6369169,104.464123 54.2774826,104.146529 C52.6703606,102.731794 50.8897179,101.519163 48.9810018,100.554008 C45.9691966,99.0279083 42.6392721,98.1039993 39.177142,97.8895204 C38.2103898,97.8276515 37.2271119,97.8235269 36.2397025,97.8812712 C36.5165076,96.3469223 36.491719,94.7259567 36.1240226,93.109116 C35.8430861,91.8964854 35.3886298,90.7704713 34.789574,89.7434473 C34.7647854,89.7022014 34.7317342,89.656831 34.7028142,89.6155849 C33.7980332,88.1059835 32.5710014,86.8397332 31.1415301,85.8787029 C30.6457597,85.5446106 30.1293321,85.2435155 29.5881162,84.9877905 C30.1623836,81.6592433 30.1045438,78.1615876 29.3030482,74.6639319 C28.4561071,70.976545 26.8655104,67.6521223 24.7378291,64.8020279 C21.4161675,60.3557157 16.7683199,57.0849127 11.5131534,55.4268259 C9.33176376,54.7380187 7.04295703,54.3296839 4.70457334,54.2348183 C4.10551734,54.2096347 3.50646158,54.2018215 2.90327415,54.2183199 L2.90327415,54.2141953 C2.89501128,54.2183199 2.88674864,54.2183199 2.87848577,54.2183199 C1.17220932,54.267815 -0.550592876,54.4781693 -2.2775265,54.8741303 C-2.66588009,54.9607468 -3.03770771,55.0844846 -3.413667,55.191724 C-3.83507182,55.3072127 -4.26060808,55.4062029 -4.66961871,55.5423145 C-5.17778329,55.6743016 -5.57853118,55.8269115 -6.04951297,55.9712723 C-12.895276,51.3146058 -100.233495,76.1529103 -100.919311,92.0655938 C-100.939968,92.0655938 -127.504999,100.116801 -133.640158,111.892517 C-156.305128,114.169293 -174,133.270287 -174,156.5 L-84.443208,156.5 L-33.2466509,156.5 L155.08,156.5 C154.984977,155.23375 154.815589,153.963375 154.518126,152.693 C152.799456,145.190363 147.965695,139.213827 141.685935,135.798663 Z" mask="url(#oses-graphic-b)"/>
    <circle cx="156" cy="168" r="25" fill="#34203A" mask="url(#oses-graphic-b)"/>
    <circle cx="206.5" cy="184.5" r="52.5" fill="#34203A" mask="url(#oses-graphic-b)"/>
    <circle cx="268.5" cy="155.5" r="52.5" fill="#34203A" mask="url(#oses-graphic-b)"/>
    <path fill="#FDC53B" fill-rule="nonzero" d="M50.855087 48.1793478L57.9098694 48.1793478 61.437262 48.1793478 68.8720433 48.1793478C68.8720433 44.561087 66.4226963 41.6284783 63.3909575 41.6284783 62.1600881 41.6284783 61.0324776 42.1158696 60.1155209 42.9336957 58.6863918 40.352174 56.2453052 38.6463044 53.461391 38.6463044 50.6320435 38.6463044 48.1537827 40.4182609 46.7370436 43.0741305 46.6833478 43.0741305 46.6337826 43.0658696 46.5759566 43.0658696 44.2174783 43.0658696 42.3009566 45.3541305 42.3009566 48.1793478L45.4896522 48.1793478 50.855087 48.1793478zM146.093001 117.485152C145.861695 117.460369 145.630391 117.443848 145.390827 117.443848 142.540827 117.443848 140.227783 119.244717 140.227783 121.466891L144.077349 121.466891 150.553869 121.466891 159.095608 121.466891C159.095608 118.236891 155.733436 115.614065 151.586478 115.614065 149.418 115.614065 147.464304 116.336891 146.093001 117.485152" mask="url(#oses-graphic-b)"/>
    <path fill="#34203A" fill-rule="nonzero" d="M39.7706522 68.169826C38.2341304 68.520913 37.2758696 70.049174 37.6269566 71.5856956 37.9780435 73.1222175 39.5104347 74.0804782 41.0428261 73.7293913 42.5793478 73.3783043 43.5417392 71.8500436 43.1865218 70.3135217 42.8354349 68.7770001 41.3071739 67.8187391 39.7706522 68.169826M93.1796522 111.642239L91.4200873 111.642239C91.4200873 112.563326 91.9776955 113.438978 92.9731298 114.232022 95.525738 116.260065 100.977913 117.759413 107.541174 118.1105 108.313565 118.151804 109.102479 118.176587 109.907912 118.180717 110.106174 118.184848 110.304436 118.188978 110.498564 118.188978 114.975957 118.184848 119.089869 117.656152 122.348782 116.768109 126.751827 115.570283 129.581175 113.715717 129.581175 111.638109L107.078564 111.642239 93.1796522 111.642239z" mask="url(#oses-graphic-b)"/>
  </g>
</svg>
